<svg width="44" height="44" viewBox="0 0 44 44" fill="none" xmlns="http://www.w3.org/2000/svg">
<g clip-path="url(#clip0_6325_58)">
<path d="M12.3937 14.8689L11.7887 11.2596L12.031 11.0189L11.2817 10.2489C10.7466 9.70768 10.3708 9.02957 10.1956 8.28892C10.0204 7.54828 10.0524 6.77368 10.2882 6.05004C10.3071 5.99504 10.3226 5.95894 10.3432 5.90394L10.1026 5.86785L8.55572 2.62285C8.44488 2.38616 8.26888 2.18595 8.04834 2.0457C7.8278 1.90545 7.57185 1.83096 7.31049 1.83096C7.04913 1.83096 6.79318 1.90545 6.57264 2.0457C6.35209 2.18595 6.17609 2.38616 6.06525 2.62285L4.539 5.88848L1.15478 6.41613C0.906189 6.45791 0.673863 6.56722 0.483199 6.73212C0.292534 6.89702 0.15087 7.11116 0.0736902 7.35113C-0.00588727 7.59123 -0.0171696 7.84872 0.0411027 8.09486C0.0993749 8.341 0.224909 8.5661 0.40369 8.74504L2.8976 11.2939L2.30978 14.9033C2.27975 15.0997 2.29222 15.3002 2.34638 15.4912C2.40053 15.6823 2.49509 15.8596 2.62366 16.011C2.75224 16.1624 2.91183 16.2844 3.09163 16.3687C3.27144 16.4531 3.46727 16.4979 3.66588 16.5C3.90583 16.5013 4.14223 16.4422 4.35338 16.3282L7.35947 14.6421L10.3845 16.2921C10.612 16.4156 10.8693 16.4741 11.1279 16.4611C11.3865 16.448 11.6366 16.364 11.8506 16.2182C12.0609 16.067 12.2243 15.8596 12.3219 15.6197C12.4195 15.3797 12.4474 15.1171 12.4023 14.8621L12.3937 14.8689ZM43.9259 7.29613C43.8469 7.05562 43.7019 6.84217 43.5074 6.68017C43.3129 6.51818 43.0767 6.41417 42.8259 6.38004L39.4348 5.86441L37.8879 2.61941C37.7773 2.38224 37.6013 2.18157 37.3805 2.04097C37.1598 1.90037 36.9035 1.82568 36.6418 1.82568C36.3801 1.82568 36.1238 1.90037 35.9031 2.04097C35.6824 2.18157 35.5064 2.38224 35.3957 2.61941L33.8729 5.88504L33.6718 5.92113C33.6718 5.94004 33.6907 5.95723 33.6907 5.97613C33.9372 6.69112 33.9803 7.46051 33.8152 8.19855C33.6501 8.9366 33.2833 9.6143 32.7557 10.1561L31.9359 11L32.2298 11.2939L31.6437 14.9033C31.6137 15.0997 31.6261 15.3002 31.6803 15.4912C31.7344 15.6823 31.829 15.8596 31.9576 16.011C32.0861 16.1624 32.2457 16.2844 32.4255 16.3687C32.6053 16.4531 32.8012 16.4979 32.9998 16.5C33.2397 16.5013 33.4761 16.4422 33.6873 16.3282L36.6934 14.6421L39.7184 16.2921C39.946 16.4156 40.2032 16.4741 40.4618 16.4611C40.7204 16.448 40.9705 16.364 41.1845 16.2182C41.3936 16.066 41.5559 15.8583 41.6531 15.6187C41.7503 15.379 41.7785 15.1169 41.7345 14.8621L41.1295 11.2527L43.6234 8.68832C43.7971 8.50551 43.9178 8.2789 43.9726 8.03276C44.0274 7.78662 44.0142 7.53021 43.9345 7.29098L43.9259 7.29613Z" fill="#F857A6"/>
<path d="M17.2182 18.3339C17.0194 18.3341 16.8228 18.2912 16.6422 18.2081C16.4615 18.125 16.301 18.0037 16.1718 17.8525C16.0426 17.7014 15.9476 17.524 15.8936 17.3327C15.8395 17.1413 15.8276 16.9405 15.8587 16.7441L16.6511 11.7941L13.2342 8.31359C13.0571 8.1334 12.9331 7.90789 12.8757 7.66183C12.8184 7.41577 12.8299 7.15867 12.9092 6.91875C12.9884 6.67883 13.1321 6.46537 13.3247 6.30181C13.5173 6.13825 13.7512 6.0309 14.0007 5.99156L18.6568 5.26625L20.7382 0.7975C20.8477 0.560943 21.0222 0.360375 21.2413 0.219176C21.4604 0.0779769 21.7151 0.00196465 21.9757 0C22.2362 6.91051e-05 22.4912 0.074089 22.7112 0.213446C22.9312 0.352804 23.1071 0.551768 23.2184 0.787188L25.3307 5.23875L29.992 5.93484C30.242 5.9717 30.4771 6.07677 30.6714 6.23851C30.8656 6.40025 31.0115 6.6124 31.093 6.85165C31.1745 7.0909 31.1885 7.348 31.1335 7.59469C31.0784 7.84138 30.9564 8.06812 30.7809 8.25L27.3812 11.7528L28.2062 16.6977C28.2491 16.9524 28.2193 17.2141 28.1204 17.4527C28.0214 17.6913 27.8572 17.8972 27.6466 18.0468C27.436 18.1964 27.1875 18.2837 26.9296 18.2986C26.6717 18.3135 26.4148 18.2554 26.1884 18.1311L22.0307 15.8538L17.8851 18.1603C17.6812 18.2737 17.4516 18.3329 17.2182 18.3322V18.3339Z" fill="#605DBA"/>
<path d="M7.33406 31.1662C9.35879 31.1662 11.0002 29.5248 11.0002 27.5001C11.0002 25.4754 9.35879 23.834 7.33406 23.834C5.30933 23.834 3.66797 25.4754 3.66797 27.5001C3.66797 29.5248 5.30933 31.1662 7.33406 31.1662Z" fill="#F857A6"/>
<path d="M12.2289 33.7339C11.2777 34.4504 10.5061 35.3781 9.97486 36.4438C9.44363 37.5096 9.16734 38.6842 9.16781 39.875V40.3339H1.375C1.01116 40.3312 0.662992 40.1855 0.405712 39.9282C0.148432 39.6709 0.00269972 39.3227 1.17272e-06 38.9589V38.0428C-0.000450581 37.3806 0.12962 36.7248 0.382778 36.1129C0.635935 35.501 1.00722 34.9449 1.47539 34.4766C1.94357 34.0083 2.49946 33.6368 3.11129 33.3834C3.72312 33.1301 4.37888 32.9998 5.0411 33H9.625C10.5439 33.0011 11.4447 33.255 12.2289 33.7339Z" fill="#F857A6"/>
<path d="M36.6661 31.1662C38.6908 31.1662 40.3322 29.5248 40.3322 27.5001C40.3322 25.4754 38.6908 23.834 36.6661 23.834C34.6414 23.834 33 25.4754 33 27.5001C33 29.5248 34.6414 31.1662 36.6661 31.1662Z" fill="#F857A6"/>
<path d="M44.0001 38.0411V38.9572C43.997 39.3209 43.8511 39.6688 43.5939 39.926C43.3368 40.1832 42.9888 40.329 42.6251 40.3322H34.834V39.875C34.8348 38.6841 34.5586 37.5094 34.0274 36.4436C33.4961 35.3778 32.7243 34.4502 31.7729 33.7339C32.5564 33.2548 33.4568 33.0008 34.3751 33H38.959C39.6211 32.9998 40.2767 33.13 40.8885 33.3833C41.5002 33.6365 42.056 34.0078 42.5241 34.476C42.9923 34.9442 43.3636 35.5 43.6169 36.1117C43.8701 36.7234 44.0004 37.379 44.0001 38.0411Z" fill="#F857A6"/>
<path d="M22 32.084C25.0376 32.084 27.5 29.6216 27.5 26.584C27.5 23.5464 25.0376 21.084 22 21.084C18.9624 21.084 16.5 23.5464 16.5 26.584C16.5 29.6216 18.9624 32.084 22 32.084Z" fill="#605DBA"/>
<path d="M27.041 34.834H16.9571C15.6204 34.8349 14.3387 35.3663 13.3935 36.3115C12.4483 37.2567 11.9169 38.5384 11.916 39.8751V42.6251C11.916 42.9898 12.0609 43.3395 12.3187 43.5974C12.5766 43.8552 12.9263 44.0001 13.291 44.0001H30.7071C31.0718 44.0001 31.4215 43.8552 31.6794 43.5974C31.9372 43.3395 32.0821 42.9898 32.0821 42.6251V39.8751C32.0812 38.5384 31.5498 37.2567 30.6046 36.3115C29.6594 35.3663 28.3777 34.8349 27.041 34.834Z" fill="#605DBA"/>
</g>
<defs>
<clipPath id="clip0_6325_58">
<rect width="44" height="44" fill="white"/>
</clipPath>
</defs>
</svg>
