<svg width="170" height="85" viewBox="0 0 170 85" fill="none" xmlns="http://www.w3.org/2000/svg">
<path d="M68.4658 1.48599C68.3928 2.34601 68.8492 3.17182 68.9206 3.98519C68.9905 4.80011 69.3352 5.68346 69.3942 6.46573C69.4516 7.24954 69.8972 8.22776 69.8599 8.95404C69.8211 9.68032 70.675 10.9696 70.3288 11.5948C79.5973 9.60567 90.4058 9.60567 99.6712 11.5948C99.2008 10.6974 100.326 9.30862 100.258 8.29464C100.19 7.27909 100.815 5.96651 100.91 4.90431C101.005 3.84056 101.477 2.58862 101.534 1.48599C90.7039 -0.49533 79.293 -0.49533 68.4658 1.48599Z" fill="#E668B3" fill-opacity="0.99"/>
<path d="M37.8813 14.2386C37.7881 14.9447 38.9805 15.6118 39.2397 16.2992C39.5005 16.9851 40.2426 17.7798 40.6401 18.4734C41.0375 19.167 41.6446 19.9119 42.0606 20.6273C42.4752 21.3427 43.1241 22.0286 43.4703 22.7922C51.2624 17.1593 61.1177 13.5714 70.3288 11.5948C70.675 10.9696 69.8211 9.68032 69.8599 8.95404C69.8972 8.22776 69.4516 7.24954 69.3942 6.46573C69.3352 5.68346 68.9905 4.80011 68.9206 3.98519C68.8492 3.17182 68.3928 2.34601 68.4658 1.48599C57.5811 3.47664 47.038 8.01004 37.8813 14.2386Z" fill="#F3E6EE" fill-opacity="0.98"/>
<path d="M99.6712 11.5948C109.013 13.5994 118.516 17.3412 126.53 22.7922C126.415 22.1017 127.606 21.3474 127.818 20.6616C128.033 19.9773 129.007 19.2432 129.285 18.5543C129.563 17.8669 130.507 17.0768 130.709 16.4034C130.911 15.7285 132.246 14.9104 132.119 14.2386C122.9 8.09557 112.424 3.4782 101.534 1.48599C101.477 2.58862 101.005 3.84056 100.91 4.90431C100.815 5.96651 100.19 7.27909 100.258 8.29464C100.326 9.30862 99.2008 10.6974 99.6712 11.5948Z" fill="#F3E6EE" fill-opacity="0.98"/>
<path d="M14.4384 37.722C14.6216 38.5416 16.6786 38.9102 17.1941 39.6272C17.7079 40.3457 19.4747 40.7578 19.9886 41.4934C20.5009 42.2306 22.6729 42.5805 22.8219 43.4763C28.2945 35.4017 35.5913 28.4857 43.4703 22.7922C43.1241 22.0286 42.4752 21.3427 42.0606 20.6273C41.6446 19.9119 41.0375 19.167 40.6401 18.4734C40.2426 17.7798 39.5005 16.9851 39.2397 16.2992C38.9805 15.6118 37.7881 14.9447 37.8813 14.2386C28.664 20.5076 20.6981 28.4873 14.4384 37.722Z" fill="#E668B3" fill-opacity="0.98"/>
<path d="M126.53 22.7922C134.402 28.1467 141.834 35.4204 147.023 43.4763C147.704 42.9942 148.499 42.5307 149.158 42.0377C149.814 41.5432 150.707 41.1233 151.323 40.6303C151.938 40.1373 152.936 39.6909 153.427 39.1606C153.918 38.6303 155.413 38.3892 155.562 37.722C149.347 28.5511 141.375 20.4065 132.119 14.2386C132.246 14.9104 130.911 15.7285 130.709 16.4034C130.507 17.0768 129.563 17.8669 129.285 18.5543C129.007 19.2432 128.033 19.9773 127.818 20.6616C127.606 21.3474 126.415 22.1017 126.53 22.7922Z" fill="#E568B3" fill-opacity="0.98"/>
<path d="M1.70776 68.3594C2.05397 68.8633 3.55525 68.5414 4.19333 68.8244C4.83142 69.1075 5.96475 69.1992 6.70995 69.4138C7.45516 69.6284 8.38201 69.6782 9.17069 69.9037C9.95936 70.1292 10.9887 70.1634 11.7991 70.3812C13.5162 60.9598 17.4269 51.4358 22.8219 43.4763C22.6729 42.5805 20.5009 42.2306 19.9886 41.4934C19.4747 40.7578 17.7079 40.3457 17.1941 39.6272C16.6786 38.9102 14.6216 38.5416 14.4384 37.722C8.12119 47.0423 3.94183 57.3673 1.70776 68.3594Z" fill="#F3E6EE" fill-opacity="0.98"/>
<path d="M147.023 43.4763C152.376 51.7857 156.239 60.7249 158.201 70.3812C158.574 69.8384 160.034 70.207 160.685 69.9146C161.335 69.6238 162.445 69.5274 163.203 69.3267C163.961 69.1261 164.888 69.0499 165.687 68.8602C166.487 68.6704 167.486 68.5771 168.292 68.3594C166.303 57.4544 161.779 46.8961 155.562 37.722C155.413 38.3892 153.918 38.6303 153.427 39.1606C152.936 39.6909 151.938 40.1373 151.323 40.6303C150.707 41.1233 149.814 41.5432 149.158 42.0377C148.499 42.5307 147.704 42.9942 147.023 43.4763Z" fill="#F3E6EE" fill-opacity="0.98"/>
<path d="M11.7991 70.3812C10.9887 70.1634 9.95936 70.1292 9.17069 69.9037C8.38201 69.6782 7.45516 69.6284 6.70995 69.4138C5.96475 69.1992 4.83142 69.1075 4.19333 68.8244C3.55525 68.5414 2.05397 68.8633 1.70776 68.3594C0.499909 73.7419 0.0652055 79.3266 0 85C3.46676 85 6.93507 85 10.4018 85C10.2248 79.9705 10.9312 75.1432 11.7991 70.3812Z" fill="#E668B3" fill-opacity="0.98"/>
<path d="M158.201 70.3812C159.052 75.1603 159.673 79.9907 159.598 85C163.065 85 166.533 85 170 85C169.967 79.3282 169.281 73.7855 168.292 68.3594C167.486 68.5771 166.487 68.6704 165.687 68.8602C164.888 69.0499 163.961 69.1261 163.203 69.3267C162.445 69.5274 161.335 69.6238 160.685 69.9146C160.034 70.207 158.574 69.8384 158.201 70.3812Z" fill="#E668B3" fill-opacity="0.98"/>
</svg>
