<svg width="44" height="44" viewBox="0 0 44 44" fill="none" xmlns="http://www.w3.org/2000/svg">
<g clip-path="url(#clip0_6325_53)">
<path d="M5.50014 19.2498C5.12725 19.2508 4.76291 19.1382 4.45569 18.9268C4.14847 18.7155 3.91297 18.4155 3.78059 18.067C3.64821 17.7184 3.62524 17.3377 3.71474 16.9757C3.80425 16.6137 4.00197 16.2876 4.28155 16.0409L12.5315 8.70697C12.7256 8.5341 12.9543 8.40465 13.2024 8.32729C13.4505 8.24993 13.7122 8.22643 13.9701 8.25838L28.2358 9.98916L36.3139 2.33041C36.6674 1.99491 37.1397 1.81358 37.6269 1.82631C38.1141 1.83904 38.5763 2.04479 38.9118 2.3983C39.2473 2.7518 39.4286 3.2241 39.4159 3.7113C39.4031 4.1985 39.1974 4.66069 38.8439 4.99619L30.135 13.2462C29.939 13.4309 29.705 13.5705 29.4494 13.6551C29.1937 13.7398 28.9226 13.7674 28.6551 13.736L14.35 12.0018L6.71873 18.7909C6.38361 19.0905 5.94965 19.2557 5.50014 19.2549V19.2498Z" fill="#F857A6"/>
<path d="M38.9587 10.0838C38.7778 10.0842 38.5986 10.0489 38.4313 9.97985C38.2641 9.91083 38.1121 9.80949 37.9841 9.68164L31.5698 3.26383C31.3774 3.07163 31.2463 2.82669 31.1931 2.55998C31.1399 2.29328 31.167 2.01679 31.2709 1.76547C31.3749 1.51416 31.551 1.29932 31.777 1.14812C32.0031 0.996914 32.2689 0.916142 32.5409 0.916016H38.957C39.3216 0.916016 39.6714 1.06088 39.9292 1.31874C40.1871 1.57661 40.332 1.92634 40.332 2.29102V8.70711C40.3318 8.97925 40.2508 9.24522 40.0994 9.47132C39.9479 9.69743 39.7328 9.87351 39.4812 9.97727C39.3161 10.0481 39.1383 10.0843 38.9587 10.0838Z" fill="#F857A6"/>
<path d="M12.834 32.5411V37.5822H1.83398V32.5411C1.83398 31.9335 2.07537 31.3507 2.50503 30.921C2.93469 30.4914 3.51744 30.25 4.12508 30.25H10.5412C11.149 30.25 11.7319 30.4913 12.1618 30.9209C12.5918 31.3506 12.8335 31.9333 12.834 32.5411ZM27.5001 21.5411V37.5822H16.5001V21.5411C16.5001 20.9335 16.7415 20.3507 17.1711 19.921C17.6008 19.4914 18.1835 19.25 18.7912 19.25H25.2073C25.5083 19.2498 25.8064 19.3089 26.0846 19.4239C26.3627 19.5389 26.6155 19.7077 26.8284 19.9204C27.0414 20.1332 27.2103 20.3859 27.3255 20.6639C27.4408 20.942 27.5001 21.2401 27.5001 21.5411ZM42.1662 25.2089V37.5839H31.1662V25.2089C31.1657 24.9078 31.2247 24.6096 31.3396 24.3313C31.4546 24.0531 31.6233 23.8002 31.8361 23.5872C32.0489 23.3743 32.3017 23.2054 32.5798 23.0902C32.858 22.975 33.1562 22.9159 33.4573 22.9161H39.8751C40.1762 22.9156 40.4745 22.9746 40.7528 23.0897C41.0311 23.2048 41.2839 23.3737 41.4967 23.5867C41.7096 23.7998 41.8783 24.0527 41.9932 24.3311C42.1081 24.6095 42.1668 24.9078 42.1662 25.2089Z" fill="#605DBA"/>
<path d="M42.625 43.084H1.375C1.01033 43.084 0.660591 42.9391 0.402728 42.6813C0.144866 42.4234 0 42.0737 0 41.709C0 41.3443 0.144866 40.9946 0.402728 40.7367C0.660591 40.4789 1.01033 40.334 1.375 40.334H42.625C42.9897 40.334 43.3394 40.4789 43.5973 40.7367C43.8551 40.9946 44 41.3443 44 41.709C44 42.0737 43.8551 42.4234 43.5973 42.6813C43.3394 42.9391 42.9897 43.084 42.625 43.084Z" fill="#F857A6"/>
</g>
<defs>
<clipPath id="clip0_6325_53">
<rect width="44" height="44" fill="white"/>
</clipPath>
</defs>
</svg>
